<?xml version="1.0" standalone="no"?>
<svg width="432" height="600" xmlns="http://www.w3.org/2000/svg">
<title>Impossible trefoil knot (isometric projection pseudo-perspective)</title>
<g transform="translate(-10,608)scale(1,-1)" stroke-linejoin="round" stroke="#000000" stroke-width="8.1">
<path stroke-width="64.8" fill="none" d="M393.882,48.9V308.1L57.1709,502.5V372.9L281.645,243.3V502.5L169.408,567.3V178.5L393.882,48.9Z"/>
<g fill="rgb(255,255,0)">
<path d="M281.645,502.5L309.704,518.7L169.408,599.7L141.349,583.5Z"/>
<path d="M393.882,308.1L421.941,324.3L57.1709,534.9L29.1118,518.7Z"/>
<path d="M253.585,259.5V291.9L85.2302,389.1L57.1709,372.9Z"/>
<path d="M365.823,65.1V97.5L197.467,194.7L169.408,178.5Z"/></g>
<g fill="rgb(0,239,0)">
<path d="M393.882,16.5V308.1L421.941,324.3V32.7Z"/>
<path d="M169.408,470.1V534.9L197.467,518.7V453.9Z"/>
<path d="M281.645,210.9V502.5L309.704,518.7V227.1Z"/>
<path d="M169.408,405.3V178.5L197.467,194.7V389.1Z"/>
<path d="M57.1709,372.9V470.1L85.2302,453.9V389.1Z"/></g>
<g fill="rgb(0,63,255)">
<path d="M141.349,421.5V162.3L393.882,16.5V308.1L309.704,356.7V324.3L365.823,291.9V65.1L169.408,178.5V405.3Z"/>
<path d="M141.349,291.9L29.1118,356.7V518.7L253.585,389.1V356.7L57.1709,470.1V372.9L141.349,324.3Z"/>
<path d="M169.408,470.1V534.9L253.585,486.3V259.5L197.467,291.9V259.5L281.645,210.9V502.5L141.349,583.5V486.3Z"/></g></g></svg>
